<?xml version="1.0" encoding="UTF-8"?>
<svg width="72px" height="72px" viewBox="0 0 72 72" version="1.1" xmlns="http://www.w3.org/2000/svg" xmlns:xlink="http://www.w3.org/1999/xlink">
    <!-- Generator: Sketch 48.2 (47327) - http://www.bohemiancoding.com/sketch -->
    <title>Bike</title>
    <desc>Created with Sketch.</desc>
    <defs></defs>
    <g id="Symbols" stroke="none" stroke-width="1" fill="none" fill-rule="evenodd">
        <g id="Bike">
            <g>
                <rect id="Rectangle-7" x="0" y="0" width="72" height="72"></rect>
                <g id="Group" transform="translate(13.000000, 22.000000)">
                    <path d="M14.1020105,0.654806217 C14.8195822,0.99427391 15.3650194,1.6948495 15.3649523,2.58064585 L15.3649523,4.95657401 C15.3650184,5.19929306 15.2684917,5.43208827 15.0966241,5.60370591 L13.4186643,7.28286108 L12.1235227,5.99295298 L13.5331516,4.57811248 L13.5331516,2.58085326 C13.5331793,2.22340968 13.2476258,2.08859054 12.9750259,2.31259773 L7.74794573,6.61450381 C5.8060008,8.21283663 5.72040053,11.1249993 7.56548091,12.8350592 L19.8407032,24.2150395 L26.9532476,24.2150395 L26.9532476,21.3458115 C26.9532476,15.0503797 32.0649855,9.9265608 38.3519257,9.9265608 L39.4932229,9.9265608 L41.8473763,5.73548298 L35.6471539,7.80430005 L35.546973,8.01171412 C35.545752,8.01171656 35.5445309,8.01171656 35.5433099,8.01171412 C35.0581771,8.9830342 34.1410046,9.66978219 33.0710926,9.85880554 L28.1266567,10.7340929 C27.30239,10.8806655 26.4540051,10.7133515 25.7403056,10.2840044 L23.1535983,8.70115848 C20.8965116,7.31902026 18.0655874,7.31902026 15.8085007,8.70115848 L12.4096481,10.7805537 L11.454393,9.21920969 L14.8496662,7.13981451 C17.6903426,5.40023271 21.2717584,5.40023271 24.1124327,7.13981451 L26.6955599,8.72252213 C27.0284622,8.9264793 27.4245607,9.00114837 27.8082374,8.9333931 L32.7526726,8.05789832 C33.2514444,7.97009303 33.6770551,7.6527495 33.9047045,7.19678424 L34.0227614,6.96102358 C34.2300395,6.54481268 34.5934252,6.22975071 35.0352622,6.08214103 L43.5145038,3.24865743 C43.8732676,3.12988018 44.2682455,3.24336368 44.5089554,3.53437936 C44.7496652,3.82539504 44.7866749,4.23417998 44.602136,4.56359349 L40.8276212,11.2879576 C40.6659321,11.5765189 40.3608934,11.7554752 40.029785,11.756022 L38.3518267,11.756022 C33.0581986,11.756022 28.7849514,16.0358039 28.7849514,21.3458807 L28.7849514,25.1297355 C28.7849083,25.6348852 28.3748727,26.0443813 27.86905,26.0444316 L19.4792525,26.0444316 C19.2479839,26.0435908 19.0255936,25.9554163 18.8567259,25.7976088 L6.32033073,14.1786184 C3.68457016,11.7356955 3.81041861,7.48695652 6.58508646,5.20325848 L11.8085845,0.901283269 C12.493352,0.337808381 13.3843432,0.315684213 14.1019156,0.655151907 L14.1020105,0.654806217 Z" id="Shape" fill="#333333"></path>
                    <path d="M37.3930884,21.4690155 C37.3930849,21.7116066 37.4895797,21.9442631 37.6613448,22.1158023 C37.8331098,22.2873414 38.0660748,22.3837114 38.3089891,22.3837115 C38.5519036,22.3837116 38.7848687,22.2873417 38.956634,22.1158025 C39.1283992,21.9442633 39.2248941,21.7116068 39.2248905,21.4690155 C39.2248941,21.2264242 39.1283992,20.9937676 38.956634,20.8222284 C38.7848687,20.6506893 38.5519036,20.5543194 38.3089891,20.5543194 C38.0660748,20.5543196 37.8331098,20.6506895 37.6613448,20.8222287 C37.4895797,20.9937678 37.3930849,21.2264243 37.3930884,21.4690155 Z" id="Shape" fill="#000000" fill-rule="nonzero"></path>
                    <path d="M38.3089891,14.1499261 C42.3448472,14.1499261 45.6361989,17.436886 45.6361989,21.4673562 C45.6361989,25.4978264 42.3448472,28.7848554 38.3089891,28.7848554 C34.2731318,28.7848554 30.9817801,25.4978264 30.9817801,21.4673562 C30.9817801,17.436886 34.2731318,14.1499261 38.3089891,14.1499261 Z M38.3089891,15.979249 C35.2631116,15.979249 32.8135822,18.425698 32.8135822,21.4673562 C32.8135822,24.5092218 35.2631116,26.9554633 38.3089891,26.9554633 C41.3548673,26.9554633 43.8043968,24.5092218 43.8043968,21.4673562 C43.8043968,18.425698 41.3548673,15.979249 38.3089891,15.979249 Z" id="Shape" fill="#FF6A6B" fill-rule="nonzero"></path>
                    <path d="M6.72857145,21.4477901 C6.72856344,21.6911866 6.82537551,21.9246169 6.99770924,22.0967271 C7.17004297,22.2688372 7.40378108,22.3655282 7.64750181,22.3655282 C7.89122265,22.3655284 8.12496094,22.2688375 8.29729482,22.0967273 C8.46962871,21.9246172 8.56644086,21.6911867 8.56643286,21.4477901 C8.56644086,21.2043935 8.46962871,20.9709631 8.29729482,20.7988529 C8.12496094,20.6267427 7.89122265,20.5300518 7.64750181,20.530052 C7.40378108,20.530052 7.17004297,20.626743 6.99770924,20.7988531 C6.82537551,20.9709633 6.72856344,21.2043936 6.72857145,21.4477901 Z" id="Shape" fill="#000000" fill-rule="nonzero"></path>
                    <path d="M6.05853716,15.3398743 C6.14664473,15.7727726 5.91239899,16.2067083 5.50184569,16.3711344 C4.84232069,16.6497619 4.24615679,17.0514557 3.7465452,17.5506346 C2.74718562,18.5487158 2.13123687,19.9205588 2.13123687,21.4472027 C2.13123687,24.500836 4.59081971,26.9571832 7.64841015,26.9571832 C9.17717387,26.9571832 10.5473182,26.3418519 11.546686,25.3440473 C12.0463648,24.8448684 12.4523755,24.2493799 12.7312452,23.5909754 C12.8588578,23.2900036 13.1375564,23.0798846 13.4623579,23.0397681 C13.7871594,22.9996515 14.1087187,23.1356322 14.3059074,23.3964874 C14.5030961,23.6573427 14.5459566,24.0034423 14.4183438,24.304414 C14.0462069,25.1828858 13.5068975,25.9744507 12.8425214,26.6380406 C11.5137773,27.9648055 9.67222574,28.7854085 7.64841015,28.7854085 C3.60084266,28.7854085 0.300556356,25.4893761 0.300556356,21.4472027 C0.300556356,19.4262888 1.12195752,17.5871396 2.45070988,16.2598908 C3.11515738,15.5961627 3.90789934,15.0580589 4.78752101,14.6862329 C4.89950413,14.6364814 5.0203462,14.6096797 5.14288951,14.6074152 C5.58514214,14.5987995 5.97042959,14.906976 6.05853716,15.3398743 Z" id="Shape" fill="#FF6A6B" fill-rule="nonzero"></path>
                </g>
            </g>
        </g>
    </g>
</svg>