<?xml version="1.0" encoding="UTF-8"?>
<svg width="72px" height="72px" viewBox="0 0 72 72" version="1.1" xmlns="http://www.w3.org/2000/svg" xmlns:xlink="http://www.w3.org/1999/xlink">
    <!-- Generator: Sketch 48.2 (47327) - http://www.bohemiancoding.com/sketch -->
    <title>Car</title>
    <desc>Created with Sketch.</desc>
    <defs></defs>
    <g id="Symbols" stroke="none" stroke-width="1" fill="none" fill-rule="evenodd">
        <g id="Car">
            <g>
                <rect id="Rectangle-7" x="0" y="0" width="72" height="72"></rect>
                <g id="taxi" transform="translate(13.000000, 13.000000)" fill-rule="nonzero">
                    <path d="M7.52508361,26.5169613 C6.14200091,26.5169613 5.01672241,25.3918333 5.01672241,24.0086001 C5.01672241,22.6255174 6.14185041,21.5002389 7.52508361,21.5002389 C8.90831682,21.5002389 10.0334448,22.6253669 10.0334448,24.0086001 C10.0334448,25.3918333 8.90831682,26.5169613 7.52508361,26.5169613 Z M7.52508361,22.9337386 C6.93241988,22.9337386 6.45007167,23.4160869 6.45007167,24.0087506 C6.45007167,24.6014143 6.93241988,25.0837625 7.52508361,25.0837625 C8.11774734,25.0837625 8.60009556,24.6014143 8.60009556,24.0087506 C8.60009556,23.4160869 8.11774734,22.9337386 7.52508361,22.9337386 Z" id="Shape" fill="#FF6A6B"></path>
                    <path d="M12.541806,26.5169613 C11.1587233,26.5169613 10.0334448,25.3918333 10.0334448,24.0086001 C10.0334448,22.6255174 11.1585728,21.5002389 12.541806,21.5002389 C13.9250392,21.5002389 15.0501672,22.6255174 15.0501672,24.0087506 C15.0501672,25.3918333 13.9250392,26.5169613 12.541806,26.5169613 Z M12.541806,22.9337386 C11.9491423,22.9337386 11.4667941,23.4160869 11.4667941,24.0087506 C11.4667941,24.6014143 11.9491423,25.0837625 12.541806,25.0837625 C13.1344698,25.0837625 13.616818,24.6014143 13.616818,24.0087506 C13.616818,23.4160869 13.1344698,22.9337386 12.541806,22.9337386 Z" id="Shape" fill="#FF6A6B"></path>
                    <path d="M32.6086957,26.5169613 C31.2256129,26.5169613 30.1003344,25.3918333 30.1003344,24.0086001 C30.1003344,22.6255174 31.2254624,21.5002389 32.6086957,21.5002389 C33.9917784,21.5002389 35.1170569,22.6253669 35.1170569,24.0086001 C35.1169064,25.3918333 33.9917784,26.5169613 32.6086957,26.5169613 Z M32.6086957,22.9337386 C32.0160319,22.9337386 31.5336837,23.4160869 31.5336837,24.0087506 C31.5336837,24.6014143 32.0160319,25.0837625 32.6086957,25.0837625 C33.2013594,25.0837625 33.6837076,24.6014143 33.6837076,24.0087506 C33.6837076,23.4160869 33.2013594,22.9337386 32.6086957,22.9337386 Z" id="Shape" fill="#FF6A6B"></path>
                    <path d="M37.6254181,26.5169613 C36.2423354,26.5169613 35.1170569,25.3918333 35.1170569,24.0086001 C35.1170569,22.6255174 36.2421849,21.5002389 37.6254181,21.5002389 C39.0086513,21.5002389 40.1337793,22.6253669 40.1337793,24.0086001 C40.1337793,25.3918333 39.0086513,26.5169613 37.6254181,26.5169613 Z M37.6254181,22.9337386 C37.0327543,22.9337386 36.5504061,23.4160869 36.5504061,24.0087506 C36.5504061,24.6014143 37.0327543,25.0837625 37.6254181,25.0837625 C38.2180818,25.0837625 38.70043,24.6014143 38.70043,24.0087506 C38.70043,23.4160869 38.2180818,22.9337386 37.6254181,22.9337386 Z" id="Shape" fill="#FF6A6B"></path>
                    <g id="Group" fill="#333333">
                        <path d="M42.1289264,31.2334697 L42.1289264,23.9698827 C42.1289264,21.5663812 40.1743368,19.6117916 37.7708352,19.6117916 L37.7301082,19.6117916 L39.2234306,18.7154931 L39.2234306,18.8854176 L42.1289264,18.8854176 C43.7313116,18.8854176 45.0344222,17.582307 45.0344222,15.9799218 C45.0344222,14.3775366 43.7313116,13.074426 42.1289264,13.074426 L39.2234306,13.074426 L39.2234306,14.5271739 L36.4945709,14.5271739 L35.7137418,6.33022236 C35.6062042,5.20588335 34.6728396,4.35809116 33.5448398,4.35809116 L28.3281264,4.35809116 L28.3281264,2.17912185 C28.3281264,0.977752418 27.3505265,0 26.1491571,0 L18.8855701,0 C17.6842007,0 16.7064483,0.977752418 16.7064483,2.17912185 L16.7064483,4.3582437 L11.4897349,4.3582437 C10.3609724,4.3582437 9.42837047,5.20588335 9.32083296,6.33098504 L8.54000384,14.5271739 L5.81114413,14.5271739 L5.81114413,13.074426 L2.90564833,13.074426 C1.30326313,13.074426 0.000152535479,14.3775366 0.000152535479,15.9799218 C0.000152535479,17.582307 1.30326313,18.8854176 2.90564833,18.8854176 L5.81114413,18.8854176 L5.81114413,18.7154931 L7.30446646,19.6117916 L7.26373949,19.6117916 C4.86023796,19.6117916 2.90564833,21.5663812 2.90564833,23.9698827 L2.90564833,31.2334697 C1.7042789,31.2334697 0.726526485,32.2112221 0.726526485,33.4125915 L0.726526485,36.3180873 C0.726526485,37.5194567 1.7042789,38.4972092 2.90564833,38.4972092 L3.63202228,38.4972092 L3.63202228,41.7658919 C3.63202228,43.5679461 5.09849837,45.0345747 6.90070505,45.0345747 C8.70291173,45.0345747 10.1693878,43.5680986 10.1693878,41.7658919 L10.1693878,38.4972092 L34.8656445,38.4972092 L34.8656445,41.7658919 C34.8656445,43.5679461 36.3321206,45.0345747 38.1343273,45.0345747 C39.9365339,45.0345747 41.40301,43.5680986 41.40301,41.7658919 L41.40301,38.4972092 L42.129384,38.4972092 C43.3307534,38.4972092 44.3085058,37.5194567 44.3085058,36.3180873 L44.3085058,33.4125915 C44.3080482,32.2110696 43.3304483,31.2334697 42.1289264,31.2334697 Z M40.676331,14.5271739 L42.1290789,14.5271739 C42.9301952,14.5271739 43.5818268,15.1786529 43.5818268,15.9799218 C43.5818268,16.7810381 42.9303478,17.4326697 42.1290789,17.4326697 L40.676331,17.4326697 L40.676331,14.5271739 Z M39.2235831,15.9799218 L39.2235831,17.0215866 L36.8666049,18.435743 L36.632768,15.9799218 L39.2235831,15.9799218 Z M18.1591962,2.17912185 C18.1591962,1.77886875 18.4845544,1.4527479 18.8855701,1.4527479 L26.1491571,1.4527479 C26.5501729,1.4527479 26.875531,1.77886875 26.875531,2.17912185 L26.875531,4.3582437 L18.1591962,4.3582437 C18.1591962,4.3582437 18.1591962,2.17912185 18.1591962,2.17912185 Z M10.7662592,6.46902965 C10.8025626,6.09424998 11.1134299,5.81099159 11.4897349,5.81099159 L16.7064483,5.81099159 L28.3281264,5.81099159 L33.5448398,5.81099159 C33.9217549,5.81099159 34.2320121,6.09424998 34.2683156,6.46841951 L35.5191065,19.6119441 L9.51546823,19.6119441 L10.7662592,6.46902965 Z M27.1761785,25.4226306 L17.8583962,25.4226306 L17.7371305,23.9698827 L27.2960714,23.9698827 L27.1761785,25.4226306 Z M27.0549128,26.875226 L26.9336471,28.3279739 L18.1010802,28.3279739 L17.9798145,26.875226 L27.0549128,26.875226 Z M27.4180997,22.5171348 L17.616475,22.5171348 L17.4952093,21.0643869 L27.5386028,21.0643869 L27.4180997,22.5171348 Z M4.3582437,17.4326697 L2.9054958,17.4326697 C2.10437946,17.4326697 1.4527479,16.7811907 1.4527479,15.9799218 C1.4527479,15.1788055 2.10422693,14.5271739 2.9054958,14.5271739 L4.3582437,14.5271739 L4.3582437,17.4326697 Z M5.81099159,15.9799218 L8.40195923,15.9799218 L8.16812234,18.435743 L5.81114413,17.0215866 L5.81099159,15.9799218 Z M4.3582437,23.9698827 C4.3582437,22.3674975 5.66135429,21.0643869 7.26373949,21.0643869 L7.91750655,21.0643869 L16.0381904,21.0643869 L16.6527558,28.4486294 C16.7159055,29.1952906 17.3515208,29.7807218 18.1010802,29.7807218 L26.9336471,29.7807218 C27.6832064,29.7807218 28.3188217,29.1952906 28.3805986,28.4486294 L28.9965369,21.0643869 L37.1172207,21.0643869 L37.7709878,21.0643869 C39.373373,21.0643869 40.6764835,22.3674975 40.6764835,23.9698827 L40.6764835,31.2334697 L4.3582437,31.2334697 L4.3582437,23.9698827 Z M8.71648739,41.7657394 C8.71648739,42.7674399 7.90225301,43.5816743 6.90055252,43.5816743 C5.89885203,43.5816743 5.08461764,42.7674399 5.08461764,41.7657394 L5.08461764,38.4970566 L8.71648739,38.4970566 C8.71648739,38.4970566 8.71648739,41.7657394 8.71648739,41.7657394 Z M39.9499571,41.7657394 C39.9499571,42.7674399 39.1357227,43.5816743 38.1340222,43.5816743 C37.1323217,43.5816743 36.3180873,42.7674399 36.3180873,41.7657394 L36.3180873,38.4970566 L39.9498045,38.4970566 L39.9498045,41.7657394 L39.9499571,41.7657394 Z M42.8553003,36.3179348 C42.8553003,36.7189506 42.5299421,37.0443087 42.1289264,37.0443087 L41.4025524,37.0443087 L34.8653394,37.0443087 L10.1692353,37.0443087 L3.63202228,37.0443087 L2.90564833,37.0443087 C2.50463256,37.0443087 2.17927438,36.7189506 2.17927438,36.3179348 L2.17927438,33.412439 C2.17927438,33.0114232 2.50463256,32.686065 2.90564833,32.686065 L42.1289264,32.686065 C42.5299421,32.686065 42.8553003,33.0114232 42.8553003,33.412439 L42.8553003,36.3179348 Z" id="Shape"></path>
                        <rect id="Rectangle-path" transform="translate(19.248650, 13.074472) rotate(-53.130102) translate(-19.248650, -13.074472) " x="13.800922" y="12.3480978" width="10.8954567" height="1.4527479"></rect>
                        <rect id="Rectangle-path" transform="translate(25.061089, 13.074635) rotate(-53.117498) translate(-25.061089, -13.074635) " x="19.6127612" y="12.3482324" width="10.8966555" height="1.45280604"></rect>
                    </g>
                </g>
            </g>
        </g>
    </g>
</svg>