<?xml version="1.0" encoding="UTF-8"?>
<svg width="72px" height="72px" viewBox="0 0 72 72" version="1.1" xmlns="http://www.w3.org/2000/svg" xmlns:xlink="http://www.w3.org/1999/xlink">
    <!-- Generator: Sketch 48.2 (47327) - http://www.bohemiancoding.com/sketch -->
    <title>Health</title>
    <desc>Created with Sketch.</desc>
    <defs></defs>
    <g id="Symbols" stroke="none" stroke-width="1" fill="none" fill-rule="evenodd">
        <g id="Health">
            <g>
                <rect id="Rectangle-7" x="0" y="0" width="72" height="72"></rect>
                <g id="pulse" transform="translate(5.000000, 11.000000)" fill-rule="nonzero">
                    <g id="Group" fill="#FF6A6B">
                        <path d="M56.7630593,5.63284759 L55.7255648,4.5418968 C50.1429525,-1.33315815 40.8632527,-1.51328715 35.0577412,4.139914 L30.3950948,8.68079312 L25.7324484,4.139914 C19.9269369,-1.51430483 10.6472372,-1.33315815 5.06462488,4.5418968 L4.02814351,5.63284759 C-1.54535016,11.4977258 -1.30522691,20.7972671 4.56310164,26.3639656 L10.0129876,31.5337697 L17.1001696,31.5337697 L24.689888,9.93457238 C25.0840143,8.81207358 26.7000337,8.92096512 26.9411701,10.0862064 L31.4032072,31.5989011 L35.7507552,21.4099092 C36.1854086,20.3922312 37.6514776,20.4858576 37.9534047,21.5503488 L40.7933434,31.5347874 L50.7782153,31.5347874 L56.2281012,26.3649833 C62.0964297,20.7972671 62.336553,11.4977258 56.7630593,5.63284759 Z" id="Shape"></path>
                        <path d="M47.5603611,34.5868036 L38.5015342,34.5868036 L36.4751776,27.4630578 L31.8611638,38.276904 C31.4102995,39.3342714 29.8712817,39.1795843 29.6372375,38.0530148 L25.3302167,17.2862781 L19.251147,34.5868036 L13.2318549,34.5868036 L16.4497091,37.6398376 L30.396108,50.8696512 L44.3425069,37.6398376 L47.5603611,34.5868036 Z" id="Shape"></path>
                    </g>
                    <g id="Group" transform="translate(1.433349, 7.883421)" fill="#333333">
                        <path d="M29.7633406,27.1179442 L24.6304949,2.29335882 C24.6213491,2.25138216 24.606106,2.17459559 24.4851777,2.16640502 C24.3683143,2.14900007 24.3388444,2.23192956 24.3256337,2.27185858 L16.4724104,24.6853457 L8.64560832,24.6853457 L8.64560832,22.6377039 L15.0354981,22.6377039 L22.4080571,1.59101768 C22.7383233,0.646030988 23.6427448,0.0532386868 24.6203329,0.122858508 C25.6141802,0.189406866 26.4169813,0.893795645 26.620222,1.87563989 L30.4370837,20.3351307 L33.5273596,13.0721452 C33.8962416,12.2029213 34.7508691,11.6817965 35.677647,11.7391304 C36.6166193,11.798512 37.3899505,12.4250904 37.64705,13.336291 L40.284099,22.6377039 L49.5335865,22.6377039 L49.5335865,24.6853457 L38.7516636,24.6853457 L35.6918738,13.8983687 C35.682728,13.8656064 35.6613877,13.7898437 35.5496053,13.782677 C35.4266446,13.7714149 35.4083529,13.84513 35.3941261,13.8778923 L29.7633406,27.1179442 Z" id="Shape"></path>
                        <path d="M29.4930303,32.1868814 C29.416815,32.1868814 29.3395835,32.18381 29.2603196,32.1756194 C28.2888288,32.0773326 27.5327731,31.3923964 27.3335971,30.428981 L23.7545272,13.1253839 L18.6298112,27.7568084 L0.12677143,27.7568084 L0.12677143,25.7091666 L17.1918827,25.7091666 L24.2605967,5.5306805 L29.3223081,30.011262 C29.3304377,30.0491434 29.3456808,30.12593 29.4625442,30.1382158 C29.5814401,30.154597 29.6098938,30.0767866 29.6241206,30.0419767 L35.3768506,16.5162788 L37.9834135,25.7091666 L58.0493748,25.7091666 L58.0493748,27.7568084 L36.4519943,27.7568084 L34.9937418,22.6162037 L31.4919033,30.8487475 C31.1392806,31.6800901 30.3700142,32.1868814 29.4930303,32.1868814 Z" id="Shape"></path>
                        <rect id="Rectangle-path" x="51.4420173" y="10.3518531" width="2.0324077" height="2.0476418"></rect>
                        <rect id="Rectangle-path" x="47.3772019" y="10.3518531" width="2.0324077" height="2.0476418"></rect>
                        <rect id="Rectangle-path" x="43.3123865" y="10.3518531" width="2.0324077" height="2.0476418"></rect>
                        <rect id="Rectangle-path" x="12.826271" y="10.3518531" width="2.0324077" height="2.0476418"></rect>
                        <rect id="Rectangle-path" x="8.76145556" y="10.3518531" width="2.0324077" height="2.0476418"></rect>
                        <rect id="Rectangle-path" x="4.69664015" y="10.3518531" width="2.0324077" height="2.0476418"></rect>
                    </g>
                </g>
            </g>
        </g>
    </g>
</svg>