<?xml version="1.0" encoding="UTF-8"?>
<svg width="265px" height="68px" viewBox="0 0 265 68" version="1.1" xmlns="http://www.w3.org/2000/svg" xmlns:xlink="http://www.w3.org/1999/xlink">
    <!-- Generator: Sketch 48.2 (47327) - http://www.bohemiancoding.com/sketch -->
    <title>rp</title>
    <desc>Created with Sketch.</desc>
    <defs>
        <linearGradient x1="0%" y1="47.1147746%" x2="46.7612389%" y2="57.9224066%" id="linearGradient-1">
            <stop stop-color="#CFF9FF" offset="0%"></stop>
            <stop stop-color="#0090C9" offset="100%"></stop>
        </linearGradient>
    </defs>
    <g id="Spalsh-Screen" stroke="none" stroke-width="1" fill="none" fill-rule="evenodd" transform="translate(-60.000000, -266.000000)">
        <g id="rp" transform="translate(60.000000, 266.000000)" fill-rule="nonzero">
            <path d="M151.069825,66.1514563 C149.814214,66.1514563 148.889027,66.1514563 147.633416,66.1514563 C147.633416,62.1242718 147.633416,58.2951456 147.633416,54.4660194 C147.633416,47.0058252 147.501247,39.5456311 147.699501,32.0194175 C147.831671,25.4834951 152.259352,21.2582524 158.603491,21.3242718 C164.947631,21.3242718 169.243142,25.5495146 169.375312,32.0854369 C169.441397,34.8582524 169.507481,37.631068 169.177057,40.3378641 C168.450125,46.3456311 161.353058,50.7060679 155.603682,48.7254853 C155.496726,48.6934305 155.088033,48.5054627 154.377603,48.1615821 L154.423133,45.9722265 C155.163167,46.4982371 155.592364,46.7681592 155.710725,46.7819927 C163.10256,47.6459199 166.004988,44.6167926 166.004988,36.9048544 C166.004988,34.5941748 166.071072,32.2834951 165.872818,29.9728155 C165.410224,25.8135922 162.304239,22.9087379 158.537406,22.9087379 C154.770574,22.9087379 151.466334,25.8796117 151.26808,30.038835 C151.003741,36.838835 151.069825,43.638835 151.069825,50.438835 C151.069825,55.5883495 151.069825,60.6718447 151.069825,66.1514563 Z M243.125935,22.2485437 C244.381546,22.2485437 245.240648,22.2485437 246.099751,22.2485437 C246.23192,22.6446602 246.430175,22.9747573 246.430175,23.238835 C246.430175,27.992233 246.430175,32.6796117 246.496259,37.4330097 C246.496259,38.8194175 246.628429,40.3378641 246.958853,41.6582524 C247.88404,45.0912621 250.990025,47.4679612 254.162095,47.3359223 C257.400249,47.2699029 260.638404,44.761165 261.034913,41.3281553 C261.563591,37.3009709 261.431421,33.207767 261.497506,29.1805825 C261.563591,27.0019417 261.497506,24.823301 261.497506,22.3145631 C262.554863,22.2485437 263.48005,22.1825243 264.405237,22.1165049 C264.603491,22.6446602 264.86783,22.9087379 264.86783,23.238835 C264.86783,34.5281553 265,45.8834951 264.86783,57.1728155 C264.801746,63.8407767 259.184539,68.3300971 252.642145,67.3398058 C252.517748,67.3242716 251.717612,67.2716682 251.063733,67.0954993 C251.156549,66.6670137 251.374562,65.7553398 251.468763,65.370981 C251.89082,65.7553398 252.348006,65.7553398 252.44389,65.7553398 C257.598504,66.0854369 260.704489,63.576699 261.431421,58.361165 C261.563591,57.6349515 261.563591,56.8427184 261.563591,56.0504854 C261.563591,53.0796117 261.563591,50.1747573 261.563591,47.2038835 C258.9202,47.7980583 256.541147,48.7223301 254.162095,48.7883495 C247.75187,49.0524272 243.258105,44.6951456 243.19202,38.2912621 C243.05985,33.1417476 243.125935,27.8601942 243.125935,22.2485437 Z M173.670823,34.9902913 C173.670823,33.8019417 173.604738,32.5475728 173.670823,31.3592233 C174.001247,25.4834951 178.230673,21.5223301 184.310474,21.3902913 C190.19202,21.2582524 194.685786,24.9553398 195.280549,30.6330097 C195.610973,33.6699029 195.610973,36.7728155 195.280549,39.8097087 C194.619701,45.6194175 190.05985,49.184466 183.913965,48.9203883 C178.098504,48.6563107 174.001247,44.6951456 173.736908,38.8854369 C173.604738,37.631068 173.670823,36.3106796 173.670823,34.9902913 Z M192.108479,35.4524272 C191.976309,33.4058252 192.042394,31.4252427 191.71197,29.5106796 C191.117207,25.7475728 188.077307,23.0407767 184.574813,22.9747573 C181.072319,22.9747573 177.701995,25.5495146 177.305486,29.3126214 C176.908978,33.207767 176.908978,37.2349515 177.305486,41.1300971 C177.701995,44.8271845 181.270574,47.4679612 184.706983,47.3359223 C188.011222,47.2038835 191.051122,44.4970874 191.645885,40.9320388 C191.976309,39.1495146 191.976309,37.3009709 192.108479,35.4524272 Z M199.774314,0.594174757 C200.699501,0.594174757 201.558603,0.594174757 202.549875,0.594174757 C202.682045,1.32038835 202.814214,2.04660194 202.814214,2.77281553 C202.814214,14.392233 202.880299,26.0776699 202.814214,37.6970874 C202.814214,41.7120612 203.644755,47.4568418 207.20679,47.4568418 C207.398568,47.4568418 207.606049,47.3909834 207.829233,47.2592664 L207.829233,48.9674624 C207.19226,48.9638876 206.812847,48.9638876 206.690996,48.9674624 C204.49268,49.0319554 201.744849,47.3596825 200.435162,44.6291262 C199.906484,43.5067961 199.509975,42.1203883 199.509975,40.8660194 C199.44389,27.9262136 199.44389,14.9864078 199.509975,1.98058252 C199.509975,1.58446602 199.642145,1.18834951 199.774314,0.594174757 Z M238.957815,22.4388017 C238.794478,22.7041604 238.353413,23.2827718 237.634623,24.1746361 C236.703883,23.4740503 236.057498,23.1114688 235.695469,23.0868915 C231.558668,22.8060542 227.2928,22.6427098 226.009975,27.6621359 C224.820449,32.415534 224.820449,38.0271845 226.009975,42.7805825 C227.190643,47.4473008 231.162547,47.5727886 235.107055,47.3653402 C236.240566,47.3057269 236.958525,46.8826264 237.693603,46.2490204 C237.577777,46.3244838 239.076987,47.9171489 238.957815,47.9876271 C237.332546,48.9488181 234.529688,48.8814327 232.575677,48.9116582 C227.152257,48.99555 221.516209,45.480176 221.516209,38.2912621 C221.516209,35.4524272 221.38404,32.5475728 221.846633,29.7747573 C222.809447,24.5326142 227.762338,21.108436 232.907925,21.3344034 C234.451149,21.4021738 236.861979,21.2140454 238.957815,22.4388017 Z M213.189526,22.5786408 C214.246883,22.5786408 215.0399,22.5786408 216.097257,22.5786408 C216.097257,31.0951456 216.097257,39.4796117 216.097257,47.9961165 C215.105985,47.9961165 214.246883,47.9961165 213.189526,47.9961165 C213.189526,39.6116505 213.189526,31.2932039 213.189526,22.5786408 Z M214.764931,15.8473658 C213.203549,15.8473658 212.396509,14.4334834 212.396509,13.2699029 C212.396509,12.1063225 213.471642,11.0873173 214.973815,11.223301 C216.475989,11.3592847 216.956359,12.5249158 216.956359,13.5339806 C216.956359,14.5430453 216.326312,15.8473658 214.764931,15.8473658 Z" id="Combined-Shape" fill="#FFFFFF"></path>
            <path d="M79.6374802,24.4932039 C79.2187566,24.579011 78.169601,23.7254564 77.7354215,23.5949515 C75.3689767,22.88365 72.9444618,23.3320397 71.1733167,24.4932039 C69.3554089,25.6873581 67.8164861,28.2873477 67.8164861,31.6499161 C67.8164861,34.0728388 67.7977733,36.8315327 67.7977733,39.2891846 C68.2237997,42.0174358 69.1423983,44.3803284 70.5785536,45.6194175 C75.0723192,49.3825243 81.6147132,46.9398058 82.6720698,40.9980583 C82.936409,39.4796117 82.8703242,37.961165 82.936409,36.376699 C82.936409,29.0705502 82.936409,17.0821438 82.936409,0.411479866 L86.042394,0.411479866 C86.042394,3.0696621 86.042394,4.62700053 86.042394,5.08349515 C86.042394,16.1747573 86.042394,27.2660194 86.042394,38.3572816 C86.042394,42.4504854 84.3630711,46.0152697 80.662323,47.9298328 C76.7633205,49.9104153 73.1204822,49.8510238 68.9653155,47.5997357 C67.1798218,46.6323471 65.2247022,43.6729634 64.4753688,40.9980583 C64.2363781,36.6932847 64.1069431,33.1611092 64.4753688,29.3887156 C64.7902655,26.1644167 67.2783334,24.1981396 69.1246883,23.1067961 C72.0229226,21.3937076 73.9263345,21.011194 77.7354215,21.5487964 C78.0794242,21.5973479 78.7134437,21.7689645 79.6374802,22.0636462 C79.5739578,23.6221581 79.5739578,24.4320107 79.6374802,24.4932039 Z M53.7602546,48.2906787 C53.1765219,48.4098864 52.618527,48.5606131 52.0862701,48.7428589 C47.7186413,50.5914389 38.5128436,46.7171789 38.5128436,40.8061836 C38.5128436,36.9431182 38.5128436,33.1010825 38.5128436,29.497089 C39.2397763,24.281555 44.6072319,21.0601942 50.0922693,21.4563107 C55.8416459,21.9184466 59.872818,25.615534 60.0049875,30.9631068 C60.0931006,34.6601942 60.1518683,40.4063051 60.1812906,48.2014394 L56.8990025,48.2014394 C56.9871155,39.8341368 56.9871155,33.9559871 56.8990025,30.5669903 C56.8329177,27.0679612 55.0486284,24.4271845 51.744389,23.238835 C48.9027431,22.1825243 46.3254364,22.9747573 44.2107232,25.1533981 C42.3238065,27.0384482 41.7880189,31.118473 41.8397517,35.2219201 C41.8931043,39.4538568 42.5941274,43.7098777 44.6072319,45.5533981 C46.3254364,47.1378641 49.3587823,47.2733124 53.7072695,45.9597431 L53.7602546,48.2906787 Z M99.1225048,65.4571375 C108.043951,64.5328657 109.393512,63.0934404 109.393512,54.4448967 C109.393512,52.0681977 109.393512,49.5926225 109.393512,46.6877681 C108.005731,47.2819429 107.255611,47.6660194 106.330424,48.0621359 C98.5985037,51.0990291 91.0053614,45.8759268 90.9392766,37.6234996 C90.8952201,34.6306193 90.8952201,29.4211285 90.9392766,21.9950271 L94.4786094,21.9950271 C94.405588,29.6022259 94.3690773,34.9242718 94.3690773,37.961165 C94.4351621,42.9786408 96.1533666,45.8834951 99.9201995,47.0718447 C104.017456,48.392233 106.637761,45.4289378 108.884643,42.458064 C109.865884,43.3505489 111.200478,45.249269 112.888423,48.1542242 C113.198821,55.7823773 112.604035,60.7276625 111.104067,62.9900799 C108.623745,66.644937 103.154645,68.7536656 98.7306733,67.2561325 C98.8078968,66.8117714 99.0337379,65.8476888 99.1225048,65.4571375 Z M30.052024,47.8154242 C22.1218495,51.9746475 12.8489723,46.2494278 12.7828875,39.5814667 C12.7828875,36.6105929 12.5846331,33.6397191 12.8489723,30.6688453 C13.3115658,24.5290395 19.2306733,20.5980583 25.7730673,21.6543689 C32.0511222,22.6446602 35.5206925,27.6201575 34.727675,34.2881187 C34.6836185,34.6402223 34.5534821,35.2174229 34.3372658,36.0197206 C27.1644749,36.0197206 22.1462424,36.0197206 19.2825683,36.0197206 C19.2825683,35.6896235 19.2825683,34.6182158 19.2825683,34.2881187 C22.8511468,34.2881187 27.2727906,34.2881187 30.7091995,34.2881187 C32.0969801,29.4687012 30.861596,25.8796117 27.4912718,23.8330097 C24.7817955,22.1825243 21.4114713,22.5786408 18.9663342,24.823301 C15.1995012,28.3223301 15.0673317,41.6582524 18.7680798,45.223301 C20.9488778,47.2699029 23.6056348,47.6014279 26.5133655,47.0072531 C27.5046373,46.8091949 27.9721471,46.5729264 28.8973341,46.3088487 C28.8973341,46.6389458 29.9859392,47.5513465 30.052024,47.8154242 Z M11.456376,23.9445689 C10.6149769,23.4420859 9.95196639,23.1688379 9.46734461,23.124825 C5.63442691,22.8607473 3.37032419,25.0213592 3.37032419,29.6427184 C3.3042394,35.6504854 3.37032419,41.6582524 3.37032419,47.8640777 C2.180798,47.8640777 1.38778055,47.8640777 0.33042394,47.8640777 C0.33042394,41.2621359 -1.48853152e-13,34.792233 0.462593516,28.3883495 C0.670042031,24.03624 4.74194307,20.7446436 8.63729912,21.3190439 C8.8268526,21.346995 9.97226623,21.628421 12.07354,22.1633218 L11.456376,23.9445689 Z M112.810915,34.0587213 L109.400904,31.9986078 L109.400904,22.1694886 L112.810915,22.1694886 L112.810915,34.0587213 Z" id="Combined-Shape" fill="#EE2324"></path>
            <path d="M121.223026,58.2197191 C121.126298,57.3741946 114.5768,47.647615 101.574531,29.0399804 C113.812178,36.5570544 119.911128,40.0574751 119.871378,39.5412425 C119.805293,39.0130871 138.827967,17.3052219 146.598398,12.7540866 C153.405131,7.80263028 161.142118,3.40179704 169.784204,5.16781509 C173.824967,5.99354851 175.519812,7.42326138 176.775423,7.81937789 C176.168066,7.87117411 172.048824,7.30359131 169.428045,7.30359131 C163.545234,7.30359131 154.209456,14.0289616 146.22851,22.5692505 C132.512072,37.2470042 121.414333,58.033861 121.223026,58.2197191 Z" id="Shape" fill="url(#linearGradient-1)"></path>
        </g>
    </g>
</svg>