<?xml version="1.0" encoding="UTF-8"?>
<svg width="24px" height="24px" viewBox="0 0 24 24" version="1.1" xmlns="http://www.w3.org/2000/svg" xmlns:xlink="http://www.w3.org/1999/xlink">
    <!-- Generator: Sketch 48.2 (47327) - http://www.bohemiancoding.com/sketch -->
    <title>Settings</title>
    <desc>Created with Sketch.</desc>
    <defs></defs>
    <g id="Symbols" stroke="none" stroke-width="1" fill="none" fill-rule="evenodd">
        <g id="Settings">
            <g id="Navbar/Icon/Settings/Normal">
                <rect id="Rectangle-2" x="0" y="0" width="24" height="24"></rect>
                <g id="settings" transform="translate(2.000000, 2.000000)" stroke="#FFFFFF" stroke-linecap="round" stroke-linejoin="round" stroke-width="1.81818182">
                    <circle id="Oval" cx="10" cy="10" r="2.72727273"></circle>
                    <path d="M16.7272727,12.7272727 C16.479685,13.2882637 16.5984856,13.9434666 17.0272727,14.3818182 L17.0818182,14.4363636 C17.423231,14.7773968 17.6150666,15.240165 17.6150666,15.7227273 C17.6150666,16.2052895 17.423231,16.6680577 17.0818182,17.0090909 C16.740785,17.3505037 16.2780168,17.5423394 15.7954545,17.5423394 C15.3128923,17.5423394 14.8501241,17.3505037 14.5090909,17.0090909 L14.4545455,16.9545455 C14.0161939,16.5257583 13.360991,16.4069578 12.8,16.6545455 C12.2504813,16.8900621 11.8932936,17.4294155 11.8909091,18.0272727 L11.8909091,18.1818182 C11.8909091,19.1859723 11.0768814,20 10.0727273,20 C9.06857318,20 8.25454545,19.1859723 8.25454545,18.1818182 L8.25454545,18.1 C8.24014237,17.4842462 7.85079252,16.9398774 7.27272727,16.7272727 C6.7117363,16.479685 6.0565334,16.5984856 5.61818182,17.0272727 L5.56363636,17.0818182 C5.22260317,17.423231 4.759835,17.6150666 4.27727273,17.6150666 C3.79471046,17.6150666 3.33194229,17.423231 2.99090909,17.0818182 C2.64949629,16.740785 2.45766062,16.2780168 2.45766062,15.7954545 C2.45766062,15.3128923 2.64949629,14.8501241 2.99090909,14.5090909 L3.04545455,14.4545455 C3.47424171,14.0161939 3.59304223,13.360991 3.34545455,12.8 C3.10993792,12.2504813 2.57058447,11.8932936 1.97272727,11.8909091 L1.81818182,11.8909091 C0.814027728,11.8909091 2.01858732e-16,11.0768814 0,10.0727273 C-1.00929366e-16,9.06857318 0.814027728,8.25454545 1.81818182,8.25454545 L1.9,8.25454545 C2.5157538,8.24014237 3.06012257,7.85079252 3.27272727,7.27272727 C3.52031496,6.7117363 3.40151443,6.0565334 2.97272727,5.61818182 L2.91818182,5.56363636 C2.57676901,5.22260317 2.38493335,4.759835 2.38493335,4.27727273 C2.38493335,3.79471046 2.57676901,3.33194229 2.91818182,2.99090909 C3.25921501,2.64949629 3.72198319,2.45766062 4.20454545,2.45766062 C4.68710772,2.45766062 5.1498759,2.64949629 5.49090909,2.99090909 L5.54545455,3.04545455 C5.98380612,3.47424171 6.63900903,3.59304223 7.2,3.34545455 L7.27272727,3.34545455 C7.82224601,3.10993792 8.17943372,2.57058447 8.18181818,1.97272727 L8.18181818,1.81818182 C8.18181818,0.814027728 8.99584591,2.01858732e-16 10,0 C11.0041541,0 11.8181818,0.814027728 11.8181818,1.81818182 L11.8181818,1.9 C11.8205663,2.4978572 12.177754,3.03721065 12.7272727,3.27272727 C13.2882637,3.52031496 13.9434666,3.40151443 14.3818182,2.97272727 L14.4363636,2.91818182 C14.7773968,2.57676901 15.240165,2.38493335 15.7227273,2.38493335 C16.2052895,2.38493335 16.6680577,2.57676901 17.0090909,2.91818182 C17.3505037,3.25921501 17.5423394,3.72198319 17.5423394,4.20454545 C17.5423394,4.68710772 17.3505037,5.1498759 17.0090909,5.49090909 L16.9545455,5.54545455 C16.5257583,5.98380612 16.4069578,6.63900903 16.6545455,7.2 L16.6545455,7.27272727 C16.8900621,7.82224601 17.4294155,8.17943372 18.0272727,8.18181818 L18.1818182,8.18181818 C19.1859723,8.18181818 20,8.99584591 20,10 C20,11.0041541 19.1859723,11.8181818 18.1818182,11.8181818 L18.1,11.8181818 C17.5021428,11.8205663 16.9627893,12.177754 16.7272727,12.7272727 Z" id="Shape"></path>
                </g>
            </g>
        </g>
    </g>
</svg>