<?xml version="1.0" encoding="UTF-8"?>
<svg width="72px" height="72px" viewBox="0 0 72 72" version="1.1" xmlns="http://www.w3.org/2000/svg" xmlns:xlink="http://www.w3.org/1999/xlink">
    <!-- Generator: Sketch 48.2 (47327) - http://www.bohemiancoding.com/sketch -->
    <title>Term</title>
    <desc>Created with Sketch.</desc>
    <defs></defs>
    <g id="Symbols" stroke="none" stroke-width="1" fill="none" fill-rule="evenodd">
        <g id="Term">
            <g>
                <rect id="Rectangle-7" x="0" y="0" width="72" height="72"></rect>
                <g id="insurance" transform="translate(13.000000, 13.000000)">
                    <path d="M23.2917703,0 C10.4490159,0 0,10.2774728 0,22.9110871 C0,23.0234443 0.00372469674,23.1358014 0.00744939348,23.2473953 L0.0127260472,23.4195948 L1.51548599,23.4276857 C1.63638343,19.8224869 4.60124204,16.9985978 8.26479167,16.9985978 C11.9929027,16.9985978 15.0269786,19.9821684 15.0269786,23.6502628 L16.5297385,23.6502628 C16.5297385,20.2320715 19.1646511,17.4110828 22.5404679,17.0422583 L22.5404679,23.6502628 L24.0432278,23.6502628 L24.0432278,17.0422583 C27.4190446,17.4110828 30.0539572,20.2320715 30.0539572,23.6502628 L31.5567171,23.6502628 C31.5567171,19.9823211 34.5906378,16.9985978 38.3189041,16.9985978 C41.9824537,16.9985978 44.9473123,19.8226396 45.0689857,23.4276857 L46.5717457,23.4195948 L46.5770223,23.2473953 C46.579971,23.1358014 46.5838509,23.0234443 46.5838509,22.9110871 C46.5835405,10.2774728 36.1345246,0 23.2917703,0 Z M8.26479167,15.5203991 C5.75605322,15.5203991 3.51549294,16.6030579 2.00388685,18.3303963 C4.0001691,9.3477785 11.7405545,2.45521731 21.2323234,1.57574788 C19.8152315,3.02433067 17.8024985,5.58732535 16.5657439,9.38243213 C15.5228289,12.5810996 15.1758113,16.4058222 15.0653119,19.0434672 C13.5723293,16.9179937 11.0831455,15.5203991 8.26479167,15.5203991 Z M23.2917703,15.5203991 C20.5283557,15.5203991 18.0804539,16.8639524 16.579246,18.9193553 C16.6964187,16.3725425 17.0367629,12.776198 17.9963379,9.83399793 C19.4848198,5.26872568 22.2308525,2.59490045 23.2917703,1.69176884 C24.3526881,2.59490045 27.0988759,5.26887834 28.5872027,9.83399793 C29.5458465,12.7732974 29.8863458,16.3702526 30.0035186,18.918592 C28.5023106,16.8633417 26.0544089,15.5203991 23.2917703,15.5203991 Z M38.3187489,15.5203991 C35.500395,15.5203991 33.0112112,16.9179937 31.5183838,19.0434672 C31.4078845,16.4056696 31.0608669,12.5810996 30.0179518,9.38243213 C28.7810421,5.58732535 26.7681539,3.02494131 25.3512172,1.57574788 C34.842986,2.45521731 42.5841474,9.3477785 44.5796537,18.3303963 C43.0678924,16.6030579 40.8274873,15.5203991 38.3187489,15.5203991 Z" id="Shape" fill="#333333" fill-rule="nonzero"></path>
                    <path d="M22.8311381,41.5670915 C22.8311381,43.5429152 21.108816,45.1504277 18.9918777,45.1504277 C16.8749394,45.1504277 15.1526173,43.5429152 15.1526173,41.5670915 L15.1526173,40.8504539 L13.616818,40.8504539 L13.616818,41.5670915 C13.616818,44.3328301 16.0279737,46.5838509 18.9918777,46.5838509 C21.9557816,46.5838509 24.3669374,44.3328301 24.3669374,41.5670915 L24.3669374,40.8504539 L22.8311381,40.8504539 L22.8311381,41.5670915 Z" id="Shape" fill="#333333" fill-rule="nonzero"></path>
                    <path d="M23.2919255,40.8504539 C18.3520271,40.8504539 14.3334926,36.8317652 14.3334926,31.892021 C14.3334926,26.9522768 18.3521813,22.9335882 23.2919255,22.9335882 C28.2316697,22.9335882 32.2503583,26.9522768 32.2503583,31.892021 C32.2503583,36.8317652 28.2318239,40.8504539 23.2919255,40.8504539 Z" id="Shape" fill="#FF6A6B" fill-rule="nonzero"></path>
                    <text id="₹" font-family="PingFangSC-Semibold, PingFang SC" font-size="10.0334448" font-weight="500" fill="#FFFFFF">
                        <tspan x="20.6402293" y="36.083612">₹</tspan>
                    </text>
                </g>
            </g>
        </g>
    </g>
</svg>