<?xml version="1.0" encoding="UTF-8"?>
<svg width="72px" height="72px" viewBox="0 0 72 72" version="1.1" xmlns="http://www.w3.org/2000/svg" xmlns:xlink="http://www.w3.org/1999/xlink">
    <!-- Generator: Sketch 48.2 (47327) - http://www.bohemiancoding.com/sketch -->
    <title>Travell</title>
    <desc>Created with Sketch.</desc>
    <defs></defs>
    <g id="Symbols" stroke="none" stroke-width="1" fill="none" fill-rule="evenodd">
        <g id="Travell">
            <g>
                <rect id="Rectangle-7" x="0" y="0" width="72" height="72"></rect>
                <g id="airplane" transform="translate(10.000000, 10.000000)" fill-rule="nonzero">
                    <path d="M45.7745838,17.2001911 L31.6261015,17.2001911 C28.4144142,17.2001911 25.8002867,14.4988958 25.8002867,11.1801152 C25.8002867,7.86133455 28.4144142,5.16003927 31.6261015,5.16003927 C31.9448932,5.16003927 32.2619373,5.18676868 32.5749614,5.24004688 C33.7351258,2.11740228 36.6614036,0 39.948769,0 C43.2719635,0 46.2606363,2.19397841 47.3818256,5.39410217 C49.8536853,6.1251875 51.6005733,8.48062596 51.6005733,11.1802958 C51.6003986,14.4988958 48.9862711,17.2001911 45.7745838,17.2001911 Z" id="Shape" fill="#FF6A6B"></path>
                    <path d="M51.1284918,27.699167 C48.1963089,26.2134987 44.9126584,25.4286578 41.6341145,25.4286578 L31.061387,25.4286578 L21.5585576,18.6335404 L13.3990877,18.6335404 L20.1070812,25.4286578 L13.2263474,25.4286578 L5.67983267,18.6335404 L0.71667463,18.6335404 L4.03888788,26.2067206 L2.84572962,26.4081036 L2.84572962,29.2629626 L3.3815591,29.6511022 C7.24365182,32.4456711 11.7942405,33.9227775 16.5402846,33.9227775 L18.4302149,33.9227775 L12.2948528,40.1376477 L13.1518631,40.7109384 C13.4193376,40.8902032 13.6716687,41.0965807 13.9014609,41.3241846 L14.1462203,41.5671285 L19.0438744,41.5671285 L29.7347556,33.9225991 L41.4235157,33.9225991 C44.3155511,33.9225991 47.1295803,33.3373575 49.786717,32.1838197 L51.014212,31.651198 C51.8057183,31.3064031 52.3172479,30.5206703 52.3172479,29.6482482 C52.317424,28.8177438 51.8620658,28.0710746 51.1284918,27.699167 Z M17.4473032,20.3323643 L21.0269541,20.3323643 L28.1542083,25.4286578 L22.4784305,25.4286578 L17.4473032,20.3323643 Z M3.29756612,20.3323643 L5.04257769,20.3323643 L10.7025078,25.4286578 L9.54791231,25.4286578 C8.94922015,25.4286578 8.34630192,25.4796724 7.75606188,25.5790262 L5.74780184,25.9179348 L3.29756612,20.3323643 Z M50.3537137,30.0893645 L49.1262187,30.6219861 C46.6777438,31.6854456 44.0876959,32.2239536 41.4236918,32.2239536 L32.1105069,32.2239536 L33.5158488,31.2191788 L32.5482566,29.8312589 L18.5117427,39.868483 L14.9319157,39.868483 L23.5625915,31.1257113 L22.377005,29.9247263 L20.1072573,32.2239536 L16.5401085,32.2239536 C12.2142055,32.2239536 8.063684,30.8981075 4.52259593,28.3880433 L4.52259593,27.8470382 L8.03181245,27.2541265 C8.53154432,27.1701129 9.04219352,27.1274817 9.54791231,27.1274817 L41.6341145,27.1274817 C44.6543404,27.1274817 47.678088,27.8502489 50.3780136,29.2178343 C50.5398365,29.3002426 50.6403816,29.4650592 50.6403816,29.6484266 C50.6403816,29.8403559 50.5271583,30.0137344 50.3537137,30.0893645 Z" id="Shape" fill="#333333"></path>
                    <path d="M15.1435697,51.6005733 L5.04779768,51.6005733 C2.26392074,51.6005733 0,49.3104315 0,46.4943113 C0,43.9939926 1.81975836,41.8764961 4.22431285,41.4756229 C5.40715578,39.3395394 7.66100602,37.9837554 10.095772,37.9837554 C13.2944832,37.9837554 16.0338379,40.2722887 16.6781737,43.3913425 C18.2767342,44.0220519 19.350215,45.5742512 19.350215,47.3453847 C19.350215,49.6916452 17.4631433,51.6005733 15.1435697,51.6005733 Z" id="Shape" fill="#FF6A6B"></path>
                    <rect id="Rectangle-path" fill="#333333" x="28.6669852" y="43.0004778" width="16.4835165" height="1.43334926"></rect>
                    <rect id="Rectangle-path" fill="#333333" x="25.083612" y="43.0004778" width="1.43334926" height="1.43334926"></rect>
                    <rect id="Rectangle-path" fill="#333333" x="7.88342093" y="5.73339704" width="13.616818" height="1.43334926"></rect>
                    <rect id="Rectangle-path" fill="#333333" x="4.30004778" y="5.73339704" width="1.43334926" height="1.43334926"></rect>
                    <rect id="Rectangle-path" fill="#333333" x="4.30004778" y="10.0334448" width="12.9001433" height="1.43334926"></rect>
                    <rect id="Rectangle-path" fill="#333333" x="0.71667463" y="10.0334448" width="1.43334926" height="1.43334926"></rect>
                </g>
            </g>
        </g>
    </g>
</svg>